<?xml version="1.0" encoding="UTF-8"?>
<svg id="Ebene_1" data-name="Ebene 1" xmlns="http://www.w3.org/2000/svg" viewBox="0 0 48 48">
  <defs>
    <style>
      .cls-1, .cls-2 {
        stroke-width: 0px;
      }

      .cls-2 {
        fill: #f8f8f8;
      }
    </style>
  </defs>
  <path class="cls-1" d="m5.15,21.91c1.39-2.81,2.77-5.63,4.18-8.43.41-.82.54-1.6.32-2.52-.83-3.53.3-6.33,3.29-8.4,2.73-1.89,5.8-2.24,8.99-1.92,5.1.51,9.8,2.28,14.19,4.84,2.01,1.18,3.93,2.56,5.77,3.99,1.69,1.32,3.09,2.97,3.96,4.98,1.3,3.01,1.09,5.92-.93,8.54-.64.82-1.62,1.4-2.53,1.98-.59.38-1.06.79-1.32,1.44-2.24,5.69-4.59,11.33-6.67,17.08-1.31,3.65-4.78,4.79-7.8,3.86-5.28-1.63-10.52-3.35-15.47-5.84-2.81-1.41-5.56-2.96-8.27-4.55-2.34-1.37-3.09-4.02-1.91-6.48,1.37-2.87,2.81-5.71,4.21-8.57,0,0,0,0-.01,0Z"/>
  <path class="cls-2" d="m8.7,22.34s0,0,0,0c-.65,1.33-1.31,2.67-1.96,4-.66,1.35-1.35,2.7-1.98,4.06-.7,1.51-.26,2.9,1.18,3.7,2.23,1.24,4.46,2.49,6.73,3.65,4.1,2.1,8.43,3.63,12.83,4.97,1.45.44,2.68-.17,3.27-1.57.54-1.3,1.03-2.61,1.54-3.92,1.65-4.23,3.3-8.46,4.93-12.71.3-.79.84-1.25,1.56-1.66.71-.41,1.43-.94,1.93-1.58,1.08-1.38,1.26-3.02.88-4.71-.53-2.33-1.89-4.16-3.63-5.69-2.65-2.32-5.73-3.93-9.06-5.04-2.3-.77-4.66-1.22-7.1-1.14-1.7.05-3.31.42-4.75,1.36-1.97,1.29-2.94,3.43-2.4,5.72.31,1.32.11,2.43-.51,3.61-1.2,2.28-2.3,4.62-3.44,6.94Z"/>
  <circle class="cls-1" cx="22.99" cy="14.87" r="1.47"/>
  <circle class="cls-1" cx="20.03" cy="9.43" r="1.47"/>
  <circle class="cls-1" cx="30.75" cy="23.66" r="1.47"/>
  <circle class="cls-1" cx="10.93" cy="28.41" r="1.47"/>
  <circle class="cls-1" cx="20.03" cy="37.51" r="1.47"/>
  <circle class="cls-1" cx="30.75" cy="13.79" r="1.47"/>
</svg>