<?xml version="1.0" encoding="UTF-8"?>
<svg id="Ebene_1" data-name="Ebene 1" xmlns="http://www.w3.org/2000/svg" viewBox="0 0 190.77 48.21">
  <defs>
    <style>
      .cls-1 {
        stroke-width: 0px;
      }

      .cls-2 {
        isolation: isolate;
      }
    </style>
  </defs>
  <g class="cls-2">
    <g class="cls-2">
      <path class="cls-1" d="m7.43,9.3H3.21l-.84,2.56H0L4.02.35h2.77l4.08,11.51h-2.59l-.84-2.56Zm-2.57-5.16l-1.07,3.36h3.04l-1.05-3.34c-.32-1.01-.44-1.69-.44-1.69h-.03c-.02.06-.15.74-.45,1.67Z"/>
      <path class="cls-1" d="m12.31.35h2.47v11.51h-2.47V.35Z"/>
      <path class="cls-1" d="m21.62,10.29h-1.88v-2.95h-2.86v-1.75h2.86v-2.92h1.88v2.92h2.87v1.75h-2.87v2.95Z"/>
      <path class="cls-1" d="m26.62.35h3.93c3.4,0,5.76,1.67,5.76,5.61s-2.33,5.9-5.7,5.9h-3.99V.35Zm3.81,9.65c1.99,0,3.27-.99,3.27-3.97s-1.29-3.84-3.19-3.84h-1.41v7.81h1.34Z"/>
      <path class="cls-1" d="m41.61,12.07c-2.6,0-3.99-1.67-3.99-4.26s1.47-4.21,4.02-4.21c2.72,0,3.87,1.79,3.87,4.15v.63h-5.48c.11,1.44.65,2.08,1.65,2.08.95,0,1.25-.47,1.4-.95h2.35c-.24,1.56-1.64,2.56-3.82,2.56Zm1.46-5.16c-.08-1.14-.53-1.82-1.43-1.82-.98,0-1.49.69-1.61,1.93h3.04v-.11Z"/>
      <path class="cls-1" d="m51.27,6.03c-.04-.51-.42-.92-1.16-.92s-1.13.36-1.13.84c0,.45.24.72.93.81l1.37.18c1.47.2,2.33.92,2.33,2.38,0,1.79-1.46,2.75-3.51,2.75-2.41,0-3.43-1.13-3.54-2.57h2.2c.03.57.41,1.04,1.35,1.04.77,0,1.28-.3,1.28-.89,0-.48-.21-.72-.96-.83l-1.29-.18c-1.5-.21-2.36-.95-2.36-2.41s1.05-2.65,3.34-2.65c2.11,0,3.14,1.02,3.25,2.44h-2.11Z"/>
      <path class="cls-1" d="m55.09.23h2.42v2.17h-2.42V.23Zm.01,3.57h2.39v8.07h-2.39V3.79Z"/>
      <path class="cls-1" d="m59.29,12.34h2.3c.15.6.5.95,1.53.95,1.17,0,1.73-.53,1.73-1.96v-1.14h-.04c-.29.65-.99,1.41-2.35,1.41-2.11,0-3.43-1.22-3.43-3.93s1.53-4.05,3.49-4.05c1.23,0,1.97.62,2.3,1.26h.03v-1.1h2.29v7.42c0,2.44-1.31,3.64-4.05,3.64-2.51,0-3.69-.99-3.81-2.51Zm5.57-5.03c0-1.31-.68-2.06-1.69-2.06s-1.7.8-1.7,2.42c0,1.53.54,2.41,1.7,2.41,1.01,0,1.69-.81,1.69-1.9v-.87Z"/>
      <path class="cls-1" d="m74.49,7.15c0-.57-.03-1.04-.24-1.34-.23-.32-.59-.47-1.04-.47-1.07,0-1.63.68-1.63,1.85v4.66h-2.39V3.79h2.3v1.32h.03c.44-.81,1.23-1.49,2.62-1.49,1.94,0,2.74,1.01,2.74,2.99v5.24h-2.39v-4.71Z"/>
      <path class="cls-1" d="m82.41.35h2.47v9.59h4.96v1.93h-7.43V.35Z"/>
      <path class="cls-1" d="m91.27,6.18c.09-1.61,1.37-2.57,3.48-2.57,2.6,0,3.51,1.07,3.51,3.22v2.78c0,.44.14.6.65.6v1.65h-.8c-1.16,0-1.72-.23-1.97-1.11h-.03c-.51.75-1.29,1.19-2.44,1.19-1.69,0-2.74-.89-2.74-2.39,0-.93.42-1.59,1.22-2.02.86-.45,2.08-.53,3.79-.6v-.44c0-.89-.38-1.35-1.19-1.35s-1.16.44-1.19,1.04h-2.29Zm4.68,2.27v-.26c-1.26.08-1.9.18-2.27.44-.27.18-.39.48-.39.81,0,.59.41.99,1.07.99.83,0,1.6-.65,1.6-1.99Z"/>
      <path class="cls-1" d="m100.32,0h2.39v5h.03c.41-.74,1.25-1.38,2.45-1.38,1.87,0,3.24,1.2,3.24,4.18,0,2.75-1.34,4.26-3.42,4.26-1.2,0-1.96-.54-2.38-1.31h-.03v1.11h-2.29V0Zm5.67,7.82c0-1.7-.53-2.57-1.67-2.57-.96,0-1.64.8-1.64,2.14v.87c0,1.26.54,2.2,1.65,2.2,1.05,0,1.66-.9,1.66-2.63Z"/>
    </g>
    <g class="cls-2">
      <path class="cls-1" d="m2.66,29.92h-1.4v-11.51h1.4v5.07h6.03v-5.07h1.4v11.51h-1.4v-5.19H2.66v5.19Z"/>
      <path class="cls-1" d="m12.3,25.94c0-2.45,1.35-4.15,3.57-4.15,2.36,0,3.54,1.7,3.54,4.15s-1.34,4.17-3.57,4.17-3.54-1.68-3.54-4.17Zm1.4,0c0,1.94.65,3.11,2.18,3.11s2.12-1.17,2.12-3.11-.63-3.12-2.15-3.12-2.15,1.19-2.15,3.12Z"/>
      <path class="cls-1" d="m26.35,24.38c-.09-.81-.66-1.55-1.81-1.55-1.43,0-2.18,1.25-2.18,3.1s.56,3.11,2.15,3.11c1.5,0,1.9-1.11,1.94-1.72h1.26c-.2,1.84-1.5,2.77-3.22,2.77-2.29,0-3.52-1.6-3.52-4.11s1.32-4.2,3.55-4.2c1.58,0,3.01.72,3.15,2.59h-1.32Z"/>
      <path class="cls-1" d="m34.72,25.01c0-.57,0-1.19-.29-1.56-.27-.38-.72-.53-1.25-.53-1.47,0-2.15.95-2.15,2.24v4.75h-1.35v-11.86h1.35v5.24h.03c.35-.77,1.19-1.5,2.48-1.5,1.52,0,2.53.72,2.53,2.6v5.52h-1.35v-4.91Z"/>
      <path class="cls-1" d="m42.74,23.97c-.08-.71-.65-1.16-1.58-1.16s-1.55.54-1.55,1.28c0,.65.39.95,1.19,1.08l1.22.18c1.65.26,2.26.93,2.26,2.3,0,1.59-1.29,2.45-3.1,2.45-1.64,0-2.99-.74-3.1-2.44h1.32c.06.62.41,1.4,1.81,1.4,1.08,0,1.76-.51,1.76-1.34,0-.63-.17-.98-1.25-1.16l-1.22-.18c-1.41-.23-2.17-.81-2.17-2.2s1.07-2.41,2.87-2.41,2.69.8,2.83,2.18h-1.29Z"/>
      <path class="cls-1" d="m51.14,24.38c-.09-.81-.66-1.55-1.81-1.55-1.43,0-2.18,1.25-2.18,3.1s.56,3.11,2.15,3.11c1.5,0,1.9-1.11,1.94-1.72h1.26c-.2,1.84-1.5,2.77-3.22,2.77-2.29,0-3.52-1.6-3.52-4.11s1.32-4.2,3.55-4.2c1.58,0,3.01.72,3.15,2.59h-1.32Z"/>
      <path class="cls-1" d="m59.5,25.01c0-.57,0-1.19-.29-1.56-.27-.38-.72-.53-1.25-.53-1.47,0-2.15.95-2.15,2.24v4.75h-1.35v-11.86h1.35v5.24h.03c.35-.77,1.19-1.5,2.48-1.5,1.52,0,2.53.72,2.53,2.6v5.52h-1.35v-4.91Z"/>
      <path class="cls-1" d="m64.92,26.86c0,.57,0,1.23.29,1.61.27.36.69.53,1.22.53,1.48,0,2.17-.98,2.17-2.72v-4.29h1.35v7.93h-1.29v-1.35h-.03c-.36.81-1.23,1.55-2.5,1.55-1.52,0-2.54-.74-2.54-2.6v-5.52h1.34v4.87Z"/>
      <path class="cls-1" d="m72.76,18.06h1.35v11.86h-1.35v-11.86Z"/>
      <path class="cls-1" d="m79.8,30.11c-2.42,0-3.58-1.76-3.58-4.12s1.26-4.2,3.54-4.2,3.31,1.84,3.31,3.84v.69h-5.46c.09,1.64.75,2.75,2.24,2.75,1.32,0,1.67-.77,1.81-1.23h1.31c-.29,1.37-1.46,2.27-3.16,2.27Zm1.88-4.95c-.03-1.32-.56-2.35-1.94-2.35-1.26,0-1.96.99-2.12,2.44h4.06v-.09Z"/>
      <path class="cls-1" d="m90.97,29.92h-1.35v-6.89h-1.44v-1.04h1.44v-1.78c0-1.63.93-2.2,2.41-2.2.3,0,.6.03.84.08v1.11c-.15-.03-.39-.06-.74-.06-.78,0-1.16.29-1.16,1.23v1.61h1.9v1.04h-1.9v6.89Z"/>
      <path class="cls-1" d="m95.92,26.86c0,.57,0,1.23.29,1.61.27.36.69.53,1.22.53,1.47,0,2.17-.98,2.17-2.72v-4.29h1.35v7.93h-1.29v-1.35h-.03c-.36.81-1.23,1.55-2.5,1.55-1.52,0-2.54-.74-2.54-2.6v-5.52h1.34v4.87Zm-.33-8.15h1.38v1.49h-1.38v-1.49Zm2.95,0h1.38v1.49h-1.38v-1.49Z"/>
      <path class="cls-1" d="m103.76,21.99h1.28v1.49h.03c.36-.83,1.35-1.64,2.51-1.64h.14v1.41h-.26c-1.41,0-2.35.81-2.35,2.35v4.32h-1.35v-7.93Z"/>
      <path class="cls-1" d="m114.82,24.26c0,3.05,1.29,4.76,3.63,4.76,2.18,0,3.48-1.25,3.48-3.51v-.17h-3.33v-1.23h4.69v5.81h-1.22v-1.65h-.06c-.54,1.01-1.73,1.9-3.6,1.9-2.9,0-5.07-1.9-5.07-5.94,0-3.76,2.27-5.97,5.25-5.97,2.36,0,4.06,1.19,4.35,3.22h-1.46c-.2-1.31-1.38-2.11-2.89-2.11-2.5,0-3.78,1.96-3.78,4.91Z"/>
      <path class="cls-1" d="m129.07,30.11c-2.42,0-3.58-1.76-3.58-4.12s1.26-4.2,3.54-4.2,3.31,1.84,3.31,3.84v.69h-5.46c.09,1.64.75,2.75,2.24,2.75,1.32,0,1.67-.77,1.81-1.23h1.31c-.29,1.37-1.46,2.27-3.16,2.27Zm1.88-4.95c-.03-1.32-.56-2.35-1.94-2.35-1.26,0-1.96.99-2.12,2.44h4.06v-.09Z"/>
      <path class="cls-1" d="m138.39,23.97c-.07-.71-.65-1.16-1.58-1.16s-1.55.54-1.55,1.28c0,.65.39.95,1.19,1.08l1.22.18c1.65.26,2.26.93,2.26,2.3,0,1.59-1.29,2.45-3.1,2.45-1.64,0-2.99-.74-3.1-2.44h1.32c.06.62.41,1.4,1.81,1.4,1.08,0,1.76-.51,1.76-1.34,0-.63-.17-.98-1.25-1.16l-1.22-.18c-1.41-.23-2.17-.81-2.17-2.2s1.07-2.41,2.87-2.41,2.69.8,2.83,2.18h-1.29Z"/>
      <path class="cls-1" d="m143.72,19.68v2.3h1.96v1.04h-1.96v4.68c0,.84.35,1.17,1.2,1.17.41,0,.87-.08.87-.08v1.14s-.56.09-1.25.09c-1.55,0-2.17-.75-2.17-2.11v-4.91h-1.44v-.99h.24c1.07,0,1.31-.26,1.31-1.78v-.57h1.23Z"/>
      <path class="cls-1" d="m147.81,24.15c.03-1.4,1.1-2.36,2.99-2.36s2.93.83,2.93,2.95v3.24c0,.63.14.89.72.9v1.1h-.17c-1.26,0-1.69-.45-1.82-1.4h-.03c-.42.93-1.37,1.47-2.54,1.47-1.58,0-2.51-.86-2.51-2.27,0-.87.38-1.6,1.19-2,.83-.44,2.06-.59,3.84-.65v-.35c0-1.43-.54-1.99-1.65-1.99-1.17,0-1.61.68-1.65,1.35h-1.29Zm4.6,2.17v-.18c-1.71.08-2.69.21-3.2.59-.3.23-.44.56-.44.98,0,.81.53,1.25,1.38,1.25,1.01,0,2.26-.68,2.26-2.63Z"/>
      <path class="cls-1" d="m156.43,18.06h1.35v11.86h-1.35v-11.86Z"/>
      <path class="cls-1" d="m162.27,19.68v2.3h1.96v1.04h-1.96v4.68c0,.84.35,1.17,1.2,1.17.41,0,.87-.08.87-.08v1.14s-.56.09-1.25.09c-1.55,0-2.17-.75-2.17-2.11v-4.91h-1.44v-.99h.24c1.07,0,1.31-.26,1.31-1.78v-.57h1.23Z"/>
      <path class="cls-1" d="m167.45,26.86c0,.57,0,1.23.29,1.61.27.36.69.53,1.22.53,1.47,0,2.17-.98,2.17-2.72v-4.29h1.35v7.93h-1.29v-1.35h-.03c-.36.81-1.23,1.55-2.5,1.55-1.52,0-2.54-.74-2.54-2.6v-5.52h1.34v4.87Z"/>
      <path class="cls-1" d="m180.33,25.03c0-.57,0-1.2-.29-1.58-.27-.38-.72-.53-1.25-.53-1.47,0-2.15.95-2.15,2.24v4.75h-1.35v-7.93h1.28v1.34h.03c.38-.81,1.29-1.53,2.56-1.53,1.52,0,2.53.72,2.53,2.6v5.52h-1.35v-4.89Z"/>
      <path class="cls-1" d="m183.93,30.71h1.31c.15.68.66,1.11,1.96,1.11,1.5,0,2.26-.56,2.26-2.3v-1.17h-.01c-.41.78-1.34,1.46-2.53,1.46-1.65,0-3.17-1.04-3.17-3.97,0-2.62,1.38-4.05,3.34-4.05,1.28,0,2.05.71,2.38,1.44h.03v-1.25h1.29v7.73c0,2.23-1.46,3.19-3.61,3.19-1.5,0-3.05-.56-3.24-2.2Zm5.55-5.19c0-1.58-.89-2.66-2.26-2.66s-2.11,1.19-2.11,2.98.5,2.95,2.17,2.95c1.28,0,2.2-1.11,2.2-2.47v-.8Z"/>
    </g>
    <g class="cls-2">
      <path class="cls-1" d="m7.55,39.55c-.14-1.13-.78-2.14-2.39-2.14s-2.41.89-2.41,1.99.57,1.65,1.93,1.91l1.63.29c2.24.41,3.02,1.5,3.02,3.14,0,2.11-1.43,3.46-4.18,3.46s-4.18-1.43-4.3-3.46h1.46c.17,1.23,1.02,2.33,2.87,2.33,2.05,0,2.72-.99,2.72-2.21,0-.99-.54-1.69-1.96-1.93l-1.61-.29c-2.26-.42-3.05-1.63-3.05-3.13,0-1.87,1.53-3.22,3.9-3.22s3.7,1.29,3.81,3.25h-1.43Z"/>
      <path class="cls-1" d="m16.52,42.44c-.09-.81-.66-1.55-1.81-1.55-1.43,0-2.18,1.25-2.18,3.1s.56,3.11,2.15,3.11c1.5,0,1.9-1.11,1.94-1.72h1.26c-.2,1.84-1.5,2.77-3.22,2.77-2.29,0-3.52-1.6-3.52-4.11s1.32-4.2,3.55-4.2c1.58,0,3.01.72,3.15,2.59h-1.32Z"/>
      <path class="cls-1" d="m24.89,43.07c0-.57,0-1.19-.29-1.56-.27-.38-.72-.53-1.25-.53-1.47,0-2.15.95-2.15,2.24v4.75h-1.35v-11.86h1.35v5.24h.03c.35-.77,1.19-1.5,2.48-1.5,1.52,0,2.53.72,2.53,2.6v5.52h-1.35v-4.91Z"/>
      <path class="cls-1" d="m27.92,40.04h1.38l1.53,5.34c.14.5.26,1.01.26,1.01h.03s.15-.53.3-.99l1.69-5.36h1.38l1.67,5.36c.15.47.29.99.29.99h.03s.12-.53.26-.99l1.56-5.36h1.31l-2.45,7.93h-1.43l-1.44-4.66c-.23-.74-.5-1.69-.5-1.69h-.01s-.27.96-.5,1.69l-1.46,4.66h-1.43l-2.47-7.93Z"/>
      <path class="cls-1" d="m41.05,42.21c.03-1.4,1.1-2.36,2.99-2.36s2.93.83,2.93,2.95v3.24c0,.63.14.89.72.9v1.1h-.17c-1.26,0-1.69-.45-1.82-1.4h-.03c-.42.93-1.37,1.47-2.54,1.47-1.58,0-2.51-.86-2.51-2.27,0-.87.38-1.6,1.19-2,.83-.44,2.06-.59,3.84-.65v-.35c0-1.43-.54-1.99-1.66-1.99-1.17,0-1.61.68-1.65,1.35h-1.29Zm.87-5.45h1.38v1.49h-1.38v-1.49Zm3.73,7.61v-.18c-1.72.08-2.69.21-3.21.59-.3.23-.44.56-.44.98,0,.81.53,1.25,1.38,1.25,1.01,0,2.26-.68,2.26-2.63Zm-.78-7.61h1.38v1.49h-1.38v-1.49Z"/>
      <path class="cls-1" d="m49.68,36.12h1.35v5.24h.01c.44-.86,1.31-1.5,2.5-1.5,1.69,0,3.19,1.04,3.19,4.05s-1.47,4.27-3.27,4.27c-1.25,0-2.08-.69-2.48-1.46h-.03v1.26h-1.28v-11.86Zm5.69,7.78c0-1.69-.5-2.96-2.12-2.96-1.43,0-2.26,1.19-2.26,2.53v.84c0,1.56.77,2.8,2.27,2.8,1.41,0,2.11-1.13,2.11-3.2Z"/>
      <path class="cls-1" d="m58.84,36.78h1.43v1.46h-1.43v-1.46Zm.03,3.27h1.37v7.93h-1.37v-7.93Z"/>
      <path class="cls-1" d="m66.98,42.03c-.07-.71-.65-1.16-1.58-1.16s-1.55.54-1.55,1.28c0,.65.39.95,1.19,1.08l1.22.18c1.65.26,2.26.93,2.26,2.3,0,1.59-1.29,2.45-3.1,2.45-1.64,0-2.99-.74-3.1-2.44h1.32c.06.62.41,1.4,1.81,1.4,1.08,0,1.76-.51,1.76-1.34,0-.63-.17-.98-1.25-1.16l-1.22-.18c-1.41-.23-2.17-.81-2.17-2.2s1.07-2.41,2.87-2.41,2.69.8,2.83,2.18h-1.29Z"/>
      <path class="cls-1" d="m75.38,42.44c-.09-.81-.66-1.55-1.81-1.55-1.43,0-2.18,1.25-2.18,3.1s.56,3.11,2.15,3.11c1.5,0,1.9-1.11,1.94-1.72h1.26c-.2,1.84-1.5,2.77-3.22,2.77-2.29,0-3.52-1.6-3.52-4.11s1.32-4.2,3.55-4.2c1.58,0,3.01.72,3.15,2.59h-1.32Z"/>
      <path class="cls-1" d="m83.75,43.07c0-.57,0-1.19-.29-1.56-.27-.38-.72-.53-1.25-.53-1.47,0-2.15.95-2.15,2.24v4.75h-1.35v-11.86h1.35v5.24h.03c.35-.77,1.19-1.5,2.48-1.5,1.52,0,2.53.72,2.53,2.6v5.52h-1.35v-4.91Z"/>
      <path class="cls-1" d="m93.03,42.32c0,3.05,1.29,4.76,3.63,4.76,2.18,0,3.48-1.25,3.48-3.51v-.17h-3.33v-1.23h4.69v5.81h-1.22v-1.65h-.06c-.54,1.01-1.73,1.9-3.6,1.9-2.9,0-5.07-1.9-5.07-5.94,0-3.76,2.27-5.97,5.25-5.97,2.36,0,4.06,1.19,4.35,3.22h-1.46c-.2-1.31-1.38-2.11-2.89-2.11-2.5,0-3.78,1.96-3.78,4.91Z"/>
      <path class="cls-1" d="m104.41,40.04h1.28v1.34h.03c.36-.81,1.28-1.53,2.54-1.53s2.11.54,2.39,1.64h.03c.3-.83,1.28-1.64,2.59-1.64,1.49,0,2.51.72,2.51,2.6v5.52h-1.35v-4.91c0-.57,0-1.19-.29-1.58-.27-.38-.71-.51-1.23-.51-1.47,0-2.14.95-2.14,2.24v4.75h-1.35v-4.91c0-.57,0-1.17-.29-1.56-.27-.38-.71-.53-1.23-.53-1.47,0-2.14.95-2.14,2.21v4.79h-1.35v-7.93Z"/>
      <path class="cls-1" d="m119.85,44.92c0,.57,0,1.23.29,1.61.27.36.69.53,1.22.53,1.47,0,2.17-.98,2.17-2.72v-4.29h1.35v7.93h-1.29v-1.35h-.03c-.36.81-1.23,1.55-2.5,1.55-1.52,0-2.54-.74-2.54-2.6v-5.52h1.34v4.87Zm-.33-8.15h1.38v1.49h-1.38v-1.49Zm2.95,0h1.38v1.49h-1.38v-1.49Z"/>
      <path class="cls-1" d="m132.73,43.08c0-.57,0-1.2-.29-1.58-.27-.38-.72-.53-1.25-.53-1.47,0-2.15.95-2.15,2.24v4.75h-1.35v-7.93h1.28v1.34h.03c.38-.81,1.29-1.53,2.56-1.53,1.52,0,2.53.72,2.53,2.6v5.52h-1.35v-4.89Z"/>
      <path class="cls-1" d="m143.2,47.97h-1.29v-1.31h-.04c-.42.78-1.28,1.5-2.5,1.5-1.69,0-3.24-1.05-3.24-4.11,0-2.72,1.41-4.21,3.42-4.21,1.19,0,1.96.66,2.27,1.4h.03v-5.13h1.35v11.86Zm-1.32-4.27c0-1.69-.89-2.77-2.15-2.77-1.52,0-2.21,1.2-2.21,3.07s.53,3.1,2.11,3.1c1.4,0,2.26-1.11,2.26-2.56v-.84Z"/>
    </g>
  </g>
</svg>